<svg width="38" height="38" viewBox="0 0 38 38" fill="none" xmlns="http://www.w3.org/2000/svg">
<path d="M19 0C24.0391 0 28.8718 2.00178 32.435 5.56497C35.9982 9.12816 38 13.9609 38 19C38 24.0391 35.9982 28.8718 32.435 32.435C28.8718 35.9982 24.0391 38 19 38C13.9609 38 9.12816 35.9982 5.56497 32.435C2.00178 28.8718 0 24.0391 0 19C0 13.9609 2.00178 9.12816 5.56497 5.56497C9.12816 2.00178 13.9609 0 19 0V0ZM10.6875 17.8125C10.3726 17.8125 10.0705 17.9376 9.84781 18.1603C9.62511 18.383 9.5 18.6851 9.5 19C9.5 19.3149 9.62511 19.617 9.84781 19.8397C10.0705 20.0624 10.3726 20.1875 10.6875 20.1875H24.4459L19.3468 25.2843C19.1238 25.5072 18.9985 25.8097 18.9985 26.125C18.9985 26.4403 19.1238 26.7428 19.3468 26.9657C19.5697 27.1887 19.8722 27.314 20.1875 27.314C20.5028 27.314 20.8053 27.1887 21.0282 26.9657L28.1532 19.8407C28.2638 19.7304 28.3516 19.5994 28.4114 19.4551C28.4713 19.3109 28.5021 19.1562 28.5021 19C28.5021 18.8438 28.4713 18.6891 28.4114 18.5449C28.3516 18.4006 28.2638 18.2696 28.1532 18.1593L21.0282 11.0343C20.8053 10.8113 20.5028 10.686 20.1875 10.686C19.8722 10.686 19.5697 10.8113 19.3468 11.0343C19.1238 11.2572 18.9985 11.5597 18.9985 11.875C18.9985 12.1903 19.1238 12.4928 19.3468 12.7157L24.4459 17.8125H10.6875Z" fill="#FF9900"/>
</svg>
