<svg width="48" height="48" viewBox="0 0 48 48" fill="none" xmlns="http://www.w3.org/2000/svg">
<path d="M20.6669 3.66226V11.6719C20.6669 12.7582 19.7863 13.6384 18.7 13.6384C14.8243 13.6384 12.7161 17.6135 12.4239 25.4592H18.7C19.7863 25.4592 20.6669 26.3402 20.6669 27.426V44.3381C20.6669 45.4238 19.7863 46.3041 18.7 46.3041H1.96646C0.879758 46.3041 0 45.4231 0 44.3381V27.426C0 23.665 0.378689 20.2136 1.1252 17.1666C1.89083 14.0424 3.06609 11.3107 4.61728 9.04723C6.21344 6.72106 8.21002 4.89568 10.552 3.62403C12.9098 2.34469 15.6517 1.6958 18.7007 1.6958C19.7863 1.6958 20.6669 2.57597 20.6669 3.66226ZM46.033 13.6385C47.1187 13.6385 48 12.7575 48 11.6721V3.6624C48 2.57611 47.1189 1.69594 46.033 1.69594C42.9852 1.69594 40.2429 2.34496 37.8859 3.62417C35.5435 4.89582 33.5459 6.7212 31.9494 9.04737C30.3988 11.3108 29.2235 14.0427 28.4578 17.1676C27.7117 20.2155 27.333 23.6669 27.333 27.4262V44.3382C27.333 45.4239 28.2138 46.3042 29.2999 46.3042H46.0329C47.1186 46.3042 47.999 45.4232 47.999 44.3382V27.426C47.999 26.3403 47.1187 25.4592 46.0329 25.4592H39.8462C40.134 17.6137 42.2114 13.6385 46.033 13.6385Z" fill="#E5E5E5"/>
</svg>
