<svg width="20" height="20" viewBox="0 0 20 20" fill="none" xmlns="http://www.w3.org/2000/svg">
<path d="M6.77666 2.08667L3.68333 7.5H2.49999C2.37191 7.50014 2.24558 7.52978 2.13079 7.58661C2.016 7.64345 1.91584 7.72595 1.83808 7.82773C1.76032 7.92951 1.70703 8.04783 1.68236 8.17351C1.6577 8.2992 1.6623 8.42888 1.69583 8.5525L4.02833 17.105C4.12501 17.4576 4.33471 17.7687 4.62524 17.9905C4.91577 18.2124 5.27109 18.3329 5.63666 18.3333H14.3642C15.1125 18.3333 15.7742 17.8292 15.9725 17.1042L18.305 8.55167C18.3389 8.428 18.3438 8.29817 18.3192 8.17231C18.2946 8.04646 18.2413 7.92798 18.1634 7.82616C18.0854 7.72433 17.985 7.64191 17.8699 7.58533C17.7548 7.52875 17.6282 7.49955 17.5 7.5H16.3167L13.2233 2.08667L11.7767 2.91334L14.3975 7.5H5.60249L8.22333 2.91334L6.77666 2.08667ZM11.6667 10.8333H13.3333V15H11.6667V10.8333ZM6.66666 10.8333H8.33333V15H6.66666V10.8333Z" fill="#FF9900"/>
</svg>
