<svg width="15" height="15" viewBox="0 0 15 15" fill="none" xmlns="http://www.w3.org/2000/svg">
<path d="M11.4041 9.92274C10.914 9.43893 10.3022 9.43893 9.8153 9.92274C9.44386 10.2911 9.07242 10.6594 8.70722 11.0339C8.60734 11.1369 8.52306 11.1588 8.40133 11.0901C8.16098 10.959 7.90503 10.8529 7.67405 10.7093C6.59718 10.032 5.69511 9.16113 4.89604 8.18102C4.49963 7.69409 4.14691 7.17282 3.90033 6.58601C3.85039 6.4674 3.85975 6.38936 3.95651 6.2926C4.32795 5.93365 4.69003 5.56533 5.05523 5.19701C5.56401 4.6851 5.56401 4.0858 5.05211 3.57078C4.76182 3.27737 4.47154 2.99021 4.18125 2.6968C3.8816 2.39715 3.58507 2.09438 3.2823 1.79785C2.79224 1.32028 2.18046 1.32028 1.69353 1.80097C1.31896 2.16929 0.960008 2.54697 0.579202 2.90905C0.226488 3.24304 0.048571 3.65193 0.0111147 4.1295C-0.0481911 4.90672 0.142212 5.64024 0.410649 6.35503C0.960008 7.83455 1.79653 9.14864 2.81097 10.3535C4.18125 11.9828 5.81684 13.272 7.73023 14.2021C8.59173 14.6204 9.48444 14.9419 10.4552 14.9949C11.1232 15.0324 11.7037 14.8638 12.1688 14.3426C12.4872 13.9867 12.8461 13.6621 13.1832 13.3219C13.6827 12.8162 13.6858 12.2044 13.1895 11.705C12.5964 11.1089 12.0003 10.5158 11.4041 9.92274Z" fill="#FF8A00"/>
<path d="M10.8079 7.43479L11.9597 7.23814C11.7786 6.18 11.2792 5.22174 10.5207 4.46013C9.71851 3.65794 8.70407 3.15228 7.58663 2.99622L7.42432 4.15424C8.28893 4.27597 9.07551 4.66614 9.69667 5.28729C10.2835 5.87411 10.6674 6.61699 10.8079 7.43479Z" fill="#FF8A00"/>
<path d="M12.6089 2.42842C11.2792 1.09872 9.59679 0.259073 7.73958 0L7.57727 1.15802C9.18165 1.38276 10.6362 2.11004 11.7849 3.25558C12.8742 4.34493 13.589 5.72145 13.8481 7.23531L14.9999 7.03866C14.6971 5.28446 13.8699 3.69257 12.6089 2.42842Z" fill="#FF8A00"/>
</svg>
