<svg width="55" height="55" viewBox="0 0 55 55" fill="none" xmlns="http://www.w3.org/2000/svg">
<g clip-path="url(#clip0_408:48)">
<path d="M27.5001 33.057C34.5874 33.057 40.3333 27.3114 40.3333 20.2238C40.3333 13.1365 34.5874 7.39084 27.5001 7.39084C20.412 7.39084 14.6664 13.1365 14.6664 20.2238C14.6742 27.3086 20.4152 33.0497 27.5001 33.057ZM27.5001 9.22402C33.5748 9.22402 38.5001 14.1489 38.5001 20.2238C38.5001 26.2992 33.5748 31.2238 27.5001 31.2238C21.4249 31.2238 16.5 26.2992 16.5 20.2238C16.5067 14.1516 21.4272 9.23046 27.5001 9.22402Z" fill="#FF9900"/>
<path d="M52.9916 38.4488C51.742 37.6538 50.1717 37.5582 48.8349 38.1951L38.2363 43.2158C38.7124 41.9484 38.5364 40.529 37.7657 39.4164C36.9952 38.3036 35.7282 37.6407 34.3751 37.6407H23.2875C19.176 33.7926 13.0547 33.0278 8.12226 35.7459L8.01265 35.8073H0V37.6407H7.33342V53.2239H0V55.0571H32.2344C35.2988 55.0562 38.3084 54.248 40.9608 52.7133L52.8454 45.833C54.1524 45.0764 54.9691 43.6915 54.9992 42.1821C55.0288 40.6722 54.2671 39.2563 52.9916 38.4488ZM51.9272 44.2459L40.0423 51.1262C37.6694 52.4996 34.9764 53.223 32.2344 53.2239H9.16683V37.2648C13.4878 34.9718 18.7978 35.7581 22.2682 39.2055C22.4405 39.3771 22.6735 39.4739 22.9164 39.4739H34.3751C35.6407 39.4739 36.6662 40.4998 36.6662 41.7657C36.6662 43.0306 35.6407 44.0571 34.3751 44.0571H22.9164C22.4104 44.0571 21.9998 44.4674 21.9998 44.9737C21.9998 45.4803 22.4104 45.8907 22.9164 45.8907H36.6662C36.8024 45.8891 36.9362 45.8576 37.0587 45.7988L49.617 39.8486C50.8209 39.2765 52.2618 39.7567 52.8817 40.9371C53.501 42.117 53.0784 43.5759 51.9243 44.2423L51.9272 44.2459Z" fill="#FF9900"/>
<path d="M20.1663 20.2238C20.1707 16.1757 23.4515 12.8952 27.5 12.8908V11.0574C22.4393 11.0627 18.3386 15.1636 18.3331 20.2238H20.1663Z" fill="#FF9900"/>
<path d="M27.5001 29.3906C32.5603 29.3849 36.6611 25.284 36.6662 20.2238H34.833C34.8286 24.2718 31.5478 27.5526 27.5001 27.5572V29.3906Z" fill="#FF9900"/>
<path d="M9.01612 5.54477C10.5099 5.79408 11.6804 6.96435 11.9295 8.45861C12.0039 8.89955 12.3863 9.22216 12.8332 9.22216C13.2806 9.22216 13.6627 8.89955 13.7367 8.45861C13.9865 6.96435 15.157 5.79408 16.6503 5.54477C17.091 5.46986 17.4139 5.08797 17.4139 4.64082C17.4139 4.1932 17.091 3.81131 16.6503 3.73663C15.157 3.48732 13.9865 2.31636 13.7367 0.822565C13.6627 0.382077 13.2806 0.0587769 12.8332 0.0587769C12.3863 0.0587769 12.0039 0.382077 11.9295 0.822565C11.6804 2.31636 10.5099 3.48732 9.01612 3.73663C8.57517 3.81131 8.25256 4.1932 8.25256 4.64082C8.25256 5.08797 8.57517 5.46986 9.01612 5.54477ZM12.8332 3.33153C13.191 3.84026 13.6338 4.28305 14.1423 4.64082C13.6338 4.99766 13.191 5.44114 12.8332 5.94964C12.4757 5.44114 12.0329 4.99766 11.5239 4.64082C12.0329 4.28305 12.4757 3.84026 12.8332 3.33153Z" fill="#FF9900"/>
<path d="M42.016 28.4612C43.5098 28.7105 44.6801 29.881 44.9291 31.375C45.0038 31.816 45.3859 32.1386 45.8331 32.1386C46.2805 32.1386 46.6626 31.816 46.7368 31.375C46.9864 29.881 48.1566 28.7105 49.6502 28.4612C50.0909 28.386 50.4138 28.0044 50.4138 27.5572C50.4138 27.1096 50.0909 26.7277 49.6502 26.6533C48.1566 26.4037 46.9864 25.2327 46.7368 23.7396C46.6626 23.2987 46.2805 22.9752 45.8331 22.9752C45.3859 22.9752 45.0038 23.2987 44.9291 23.7396C44.6801 25.2327 43.5098 26.4037 42.016 26.6533C41.5755 26.7277 41.2524 27.1096 41.2524 27.5572C41.2524 28.0044 41.5755 28.386 42.016 28.4612ZM45.8331 26.2479C46.1909 26.7567 46.6337 27.1994 47.1422 27.5572C46.6337 27.9143 46.1909 28.3575 45.8331 28.866C45.4756 28.3575 45.0328 27.9143 44.5238 27.5572C45.0328 27.1994 45.4756 26.7567 45.8331 26.2479Z" fill="#FF9900"/>
<path d="M26.5829 15.6409C25.0645 15.6409 23.8331 16.872 23.8331 18.3906C23.8331 19.9092 25.0645 21.1406 26.5829 21.1406H28.4163C28.9227 21.1406 29.3331 21.5508 29.3331 22.0572C29.3331 22.5639 28.9227 22.9738 28.4163 22.9738H24.7497V24.8072H26.5829V25.724H28.4163V24.8072C29.9351 24.8072 31.1663 23.5761 31.1663 22.0572C31.1663 20.5386 29.9351 19.3072 28.4163 19.3072H26.5829C26.0767 19.3072 25.6663 18.8968 25.6663 18.3906C25.6663 17.8844 26.0767 17.474 26.5829 17.474H30.2499V15.6409H28.4163V14.724H26.5829V15.6409Z" fill="#FF9900"/>
</g>
<defs>
<clipPath id="clip0_408:48">
<rect width="55" height="55" fill="white"/>
</clipPath>
</defs>
</svg>
