<svg width="55" height="55" viewBox="0 0 55 55" fill="none" xmlns="http://www.w3.org/2000/svg">
<path d="M53.2812 28.3594H18.9062V15.4688H51.5625V19.7656H53.2812V12.8906C53.2812 11.4692 52.1245 10.3125 50.7031 10.3125H19.7656C18.3442 10.3125 17.1875 11.4692 17.1875 12.8906V14.6094H11.3807C10.4629 14.6094 9.59922 14.9669 8.94953 15.6166L3.58531 20.9808C2.93562 21.6296 2.57812 22.4933 2.57812 23.412V25.9643C1.58039 26.3201 0.859375 27.2654 0.859375 28.3843C0.859375 29.5032 1.58039 30.4485 2.57812 30.8043V32.6562C2.57812 32.6605 2.5807 32.664 2.5807 32.6683C2.5807 32.6726 2.57812 32.676 2.57812 32.6803V35.2584C2.57812 37.1542 4.11984 38.6959 6.01562 38.6959H8.59375C9.06812 38.6959 9.45312 38.3118 9.45312 37.8366V36.9531H11.0249C10.5755 37.718 10.3125 38.6057 10.3125 39.5553C10.3125 42.399 12.6251 44.7116 15.4688 44.7116C18.3124 44.7116 20.625 42.399 20.625 39.5553C20.625 38.6057 20.362 37.718 19.9126 36.9531H29.0718C28.6223 37.718 28.3594 38.6057 28.3594 39.5553C28.3594 42.399 30.672 44.7116 33.5156 44.7116C36.3593 44.7116 38.6719 42.399 38.6719 39.5553C38.6719 38.6057 38.4089 37.718 37.9595 36.9531H40.2437C39.7942 37.718 39.5312 38.6057 39.5312 39.5553C39.5312 42.399 41.8438 44.7116 44.6875 44.7116C47.5312 44.7116 49.8438 42.399 49.8438 39.5553C49.8438 38.6057 49.5808 37.718 49.1313 36.9531H49.8438C51.2652 36.9531 52.4219 35.7964 52.4219 34.375V33.5156H53.2812C53.7556 33.5156 54.1406 33.1315 54.1406 32.6562V29.2188C54.1406 28.7435 53.7556 28.3594 53.2812 28.3594ZM19.7656 12.0312H50.7031C51.1766 12.0312 51.5625 12.4171 51.5625 12.8906V13.75H18.9062V12.8906C18.9062 12.4171 19.2921 12.0312 19.7656 12.0312ZM11.3807 16.3281H17.1875V29.2188V31.7969H13.0565C13.4191 30.8112 14.3584 30.1022 15.4688 30.1022C15.9431 30.1022 16.3281 29.718 16.3281 29.2428V26.6647H16.323C16.3238 26.6561 16.3281 26.6492 16.3281 26.6406V18.0469C16.3281 17.5725 15.9431 17.1875 15.4688 17.1875H9.80891L10.1647 16.8317C10.4895 16.5069 10.9209 16.3281 11.3807 16.3281ZM7.73438 34.375H4.29688V33.5397H7.73438V34.375ZM4.29688 31.7969V30.9616H5.15625C5.63062 30.9616 6.01562 30.5774 6.01562 30.1022V27.5H14.6094V28.4702C12.9379 28.8114 11.6239 30.1288 11.2724 31.7969H4.29688ZM4.80047 22.1959L8.09016 18.9062H14.6094V25.7812H5.15625V25.8053H4.29688V23.412C4.29688 22.9522 4.47563 22.5208 4.80047 22.1959ZM3.4375 27.5241H4.29688V29.2428H3.4375C2.96398 29.2428 2.57812 28.8578 2.57812 28.3834C2.57812 27.9091 2.96398 27.5241 3.4375 27.5241ZM6.01562 36.9772C5.37195 36.9772 4.81766 36.618 4.52289 36.0938H7.73438V36.9772H6.01562ZM15.4688 42.9928C13.573 42.9928 12.0312 41.4511 12.0312 39.5553C12.0312 37.6595 13.573 36.1178 15.4688 36.1178C17.3645 36.1178 18.9062 37.6595 18.9062 39.5553C18.9062 41.4511 17.3645 42.9928 15.4688 42.9928ZM33.5156 42.9928C31.6198 42.9928 30.0781 41.4511 30.0781 39.5553C30.0781 37.6595 31.6198 36.1178 33.5156 36.1178C35.4114 36.1178 36.9531 37.6595 36.9531 39.5553C36.9531 41.4511 35.4114 42.9928 33.5156 42.9928ZM44.6875 42.9928C42.7917 42.9928 41.25 41.4511 41.25 39.5553C41.25 37.6595 42.7917 36.1178 44.6875 36.1178C46.5833 36.1178 48.125 37.6595 48.125 39.5553C48.125 41.4511 46.5833 42.9928 44.6875 42.9928ZM50.7031 34.375C50.7031 34.8494 50.3173 35.2344 49.8438 35.2344H47.4916C46.6838 34.7084 45.7213 34.3991 44.6875 34.3991C43.6537 34.3991 42.6912 34.7084 41.8834 35.2344H36.3198C35.512 34.7084 34.5495 34.3991 33.5156 34.3991C32.4818 34.3991 31.5193 34.7084 30.7115 35.2344H18.2729C17.4651 34.7084 16.5026 34.3991 15.4688 34.3991C14.4349 34.3991 13.4724 34.7084 12.6646 35.2344H9.45312V33.5156H18.0469H50.7031V34.375ZM52.4219 31.7969H18.9062V30.0781H52.4219V31.7969Z" fill="#FF9900"/>
<path d="M15.4688 41.274C16.418 41.274 17.1875 40.5045 17.1875 39.5553C17.1875 38.6061 16.418 37.8365 15.4688 37.8365C14.5195 37.8365 13.75 38.6061 13.75 39.5553C13.75 40.5045 14.5195 41.274 15.4688 41.274Z" fill="#FF9900"/>
<path d="M33.5156 41.274C34.4649 41.274 35.2344 40.5045 35.2344 39.5553C35.2344 38.6061 34.4649 37.8365 33.5156 37.8365C32.5664 37.8365 31.7969 38.6061 31.7969 39.5553C31.7969 40.5045 32.5664 41.274 33.5156 41.274Z" fill="#FF9900"/>
<path d="M44.6875 41.274C45.6367 41.274 46.4062 40.5045 46.4062 39.5553C46.4062 38.6061 45.6367 37.8365 44.6875 37.8365C43.7383 37.8365 42.9688 38.6061 42.9688 39.5553C42.9688 40.5045 43.7383 41.274 44.6875 41.274Z" fill="#FF9900"/>
<path d="M7.73438 28.3834H11.1719V30.1022H7.73438V28.3834Z" fill="#FF9900"/>
<path d="M24.9219 19.7656V18.0469H21.4844C21.01 18.0469 20.625 18.4319 20.625 18.9062V26.6406H22.3438V23.2031H24.9219V21.4844H22.3438V19.7656H24.9219Z" fill="#FF9900"/>
<path d="M30.9375 20.625C30.9375 19.2036 29.7808 18.0469 28.3594 18.0469H26.6406C26.1663 18.0469 25.7812 18.4319 25.7812 18.9062V26.6406H27.5V23.3767L29.2188 24.5223V26.6406H30.9375V24.0625C30.9375 23.7755 30.794 23.5073 30.5551 23.3475L29.7327 22.7992C30.4537 22.342 30.9375 21.5411 30.9375 20.625ZM27.5 19.7656H28.3594C28.8329 19.7656 29.2188 20.1515 29.2188 20.625C29.2188 21.0985 28.8329 21.4844 28.3594 21.4844H27.5V19.7656Z" fill="#FF9900"/>
<path d="M36.0938 19.7656V18.0469H32.6562C32.1819 18.0469 31.7969 18.4319 31.7969 18.9062V25.7812C31.7969 26.2556 32.1819 26.6406 32.6562 26.6406H36.0938V24.9219H33.5156V23.2031H36.0938V21.4844H33.5156V19.7656H36.0938Z" fill="#FF9900"/>
<path d="M41.25 19.7656V18.0469H37.8125C37.3381 18.0469 36.9531 18.4319 36.9531 18.9062V25.7812C36.9531 26.2556 37.3381 26.6406 37.8125 26.6406H41.25V24.9219H38.6719V23.2031H41.25V21.4844H38.6719V19.7656H41.25Z" fill="#FF9900"/>
<path d="M42.9688 24.9219H53.2812V26.6406H42.9688V24.9219Z" fill="#FF9900"/>
<path d="M42.9688 22.3438H51.5625V24.0625H42.9688V22.3438Z" fill="#FF9900"/>
<path d="M42.9688 19.7656H49.8438V21.4844H42.9688V19.7656Z" fill="#FF9900"/>
</svg>
