<svg width="55" height="55" viewBox="0 0 55 55" fill="none" xmlns="http://www.w3.org/2000/svg">
<path d="M52.4219 52.4219V26.6406H50.7031V23.2031H48.9844V18.0469H47.2656V14.6094H45.5469V18.0469H43.8281V23.2031H42.1094V4.10781L36.9531 5.13906V2.57812H35.2344V5.48281L33.5156 5.82656V0.859375H31.7969V6.17031L30.0781 6.51406V2.57812H28.3594V6.85867L23.2031 7.88992V12.8906H7.73438V14.6094H9.45312V25.0001C9.17125 24.9537 8.88594 24.9219 8.59375 24.9219C5.27742 24.9219 2.57812 28.0062 2.57812 31.7969C2.57812 35.2533 4.82453 38.1141 7.73438 38.5937V39.7134C7.01508 39.0629 6.12391 38.6719 5.15625 38.6719C2.78695 38.6719 0.859375 40.9845 0.859375 43.8281C0.859375 46.3186 2.33836 48.4009 4.29688 48.8804V52.4219H0.859375V54.1406H54.1406V52.4219H52.4219ZM14.6094 51.5625C14.6094 50.1411 15.7661 48.9844 17.1875 48.9844C18.1156 48.9844 18.9767 49.4871 19.4348 50.2966L19.7012 50.7684L20.625 50.7031C20.8777 50.7031 21.1441 50.7521 21.4397 50.8518L22.275 51.132L22.5354 50.2906C23.0948 48.4816 24.7448 47.2656 26.6406 47.2656C28.203 47.2656 29.645 48.1173 30.4038 49.4888L30.9409 50.4616L31.747 49.6968C32.7155 48.779 34.3148 48.779 35.2834 49.6968L36.0895 50.4616L36.6266 49.4888C37.3862 48.1173 38.8283 47.2656 40.3906 47.2656C42.2563 47.2656 43.8977 48.4584 44.4752 50.2339L44.7167 50.9755L45.479 50.8071C47.1823 50.429 48.8469 51.1302 49.8257 52.4219H14.7761C14.6781 52.1452 14.6094 51.859 14.6094 51.5625ZM50.7031 28.3594V50.8209C50.2047 50.3104 49.6263 49.8902 48.9844 49.5825V30.0781H36.9531V46.6383C36.471 46.9752 36.0319 47.3756 35.6623 47.8448C35.5248 47.7649 35.3805 47.697 35.2344 47.6343V28.3594H50.7031ZM40.3906 45.5469C39.7994 45.5469 39.2227 45.6431 38.6719 45.8081V31.7969H42.1094V45.7961C41.562 45.6337 40.9845 45.5469 40.3906 45.5469ZM43.8281 31.7969H47.2656V49.0652C46.799 48.9973 46.3237 48.9646 45.8382 49.0119C45.3836 48.0382 44.6806 47.2321 43.8281 46.6366V31.7969ZM36.9531 26.6406V24.9219H48.9844V26.6406H36.9531ZM45.5469 19.7656H47.2656V23.2031H45.5469V19.7656ZM40.3906 6.20469V23.2031H35.2344V26.6406H33.5156V47.2785C32.7663 47.2785 32.0177 47.4676 31.3689 47.8448C30.2388 46.4088 28.5012 45.5469 26.6406 45.5469C26.0459 45.5469 25.4684 45.6328 24.9219 45.7935V9.29758L40.3906 6.20469ZM11.1719 14.6094H23.2031V46.6305C22.3438 47.2287 21.6373 48.0425 21.1827 49.0273C21.0014 49.0024 20.8175 48.9887 20.6267 48.9869C19.8215 47.9136 18.5479 47.2656 17.1875 47.2656C14.8182 47.2656 12.8906 49.1932 12.8906 51.5625C12.8906 51.853 12.9293 52.1391 12.9869 52.4219H9.45312V49.3015L14.6094 43.2867V41.1718C17.5192 40.6923 19.7656 37.8314 19.7656 34.375C19.7656 31.7883 18.5075 29.5324 16.6555 28.3594H18.0469V26.6406H16.3281V28.1729C15.5452 27.7458 14.673 27.5 13.75 27.5C13.6022 27.5 13.4509 27.5095 13.298 27.5241C12.7299 26.7085 12.0029 26.0477 11.1719 25.5948V14.6094ZM14.6094 31.7969C14.6094 30.8945 14.4521 30.0343 14.1745 29.2445C16.3453 29.5015 18.0469 31.7041 18.0469 34.375C18.0469 37.2187 16.1193 39.5312 13.75 39.5312C12.6655 39.5312 11.6351 39.032 10.8488 38.1657C13.0505 37.1439 14.6094 34.6758 14.6094 31.7969ZM9.45312 39.1712C10.3752 40.2523 11.5775 40.9587 12.8906 41.1744V42.6516L9.45312 46.6623V39.1712ZM4.29688 31.7969C4.29688 28.9532 6.22445 26.6406 8.59375 26.6406C10.963 26.6406 12.8906 28.9532 12.8906 31.7969C12.8906 34.2873 11.4116 36.3696 9.45312 36.8491V30.9375H7.73438V36.8491C5.77586 36.3696 4.29688 34.2873 4.29688 31.7969ZM2.57812 43.8281C2.57812 41.9323 3.73484 40.3906 5.15625 40.3906C6.57766 40.3906 7.73438 41.9323 7.73438 43.8281C7.73438 45.7239 6.57766 47.2656 5.15625 47.2656C3.73484 47.2656 2.57812 45.7239 2.57812 43.8281ZM6.01562 48.8804C6.65156 48.7248 7.23422 48.3957 7.73438 47.9437V52.4219H6.01562V48.8804Z" fill="#FF9900"/>
<path d="M31.7969 11.1719H26.6406V18.0469H31.7969V11.1719ZM30.0781 16.3281H28.3594V12.8906H30.0781V16.3281Z" fill="#FF9900"/>
<path d="M31.7969 19.7656H26.6406V26.6406H31.7969V19.7656ZM30.0781 24.9219H28.3594V21.4844H30.0781V24.9219Z" fill="#FF9900"/>
<path d="M31.7969 28.3594H26.6406V35.2344H31.7969V28.3594ZM30.0781 33.5156H28.3594V30.0781H30.0781V33.5156Z" fill="#FF9900"/>
<path d="M31.7969 36.9531H26.6406V43.8281H31.7969V36.9531ZM30.0781 42.1094H28.3594V38.6719H30.0781V42.1094Z" fill="#FF9900"/>
<path d="M38.6719 11.1719H33.5156V18.0469H38.6719V11.1719ZM36.9531 16.3281H35.2344V12.8906H36.9531V16.3281Z" fill="#FF9900"/>
<path d="M12.8906 16.3281H14.6094V18.0469H12.8906V16.3281Z" fill="#FF9900"/>
<path d="M16.3281 16.3281H18.0469V18.0469H16.3281V16.3281Z" fill="#FF9900"/>
<path d="M19.7656 16.3281H21.4844V18.0469H19.7656V16.3281Z" fill="#FF9900"/>
<path d="M12.8906 19.7656H14.6094V21.4844H12.8906V19.7656Z" fill="#FF9900"/>
<path d="M16.3281 19.7656H18.0469V21.4844H16.3281V19.7656Z" fill="#FF9900"/>
<path d="M19.7656 19.7656H21.4844V21.4844H19.7656V19.7656Z" fill="#FF9900"/>
<path d="M16.3281 23.2031H18.0469V24.9219H16.3281V23.2031Z" fill="#FF9900"/>
<path d="M12.8906 23.2031H14.6094V24.9219H12.8906V23.2031Z" fill="#FF9900"/>
<path d="M19.7656 23.2031H21.4844V24.9219H19.7656V23.2031Z" fill="#FF9900"/>
<path d="M19.7656 26.6406H21.4844V28.3594H19.7656V26.6406Z" fill="#FF9900"/>
</svg>
