<svg width="55" height="55" viewBox="0 0 55 55" fill="none" xmlns="http://www.w3.org/2000/svg">
<path d="M55 19.8503C55 21.4993 54.7417 23.1324 54.2251 24.7089C51.6759 36.1687 29.6457 50.1229 28.71 50.7078C28.5149 50.8319 28.2921 50.8909 28.0704 50.8909C27.8472 50.8909 27.6255 50.8323 27.4293 50.7078C26.9824 50.4283 16.4167 43.7515 8.92333 35.8406C8.46916 35.3594 8.48805 34.5961 8.97152 34.1434C9.45499 33.69 10.2145 33.7089 10.6714 34.1924C16.9264 40.7986 25.655 46.6839 28.0708 48.2642C31.7165 45.8789 49.7767 33.6434 51.9107 24.0754C52.3756 22.6281 52.5962 21.2479 52.5962 19.853C52.5962 14.9994 49.9529 10.5237 45.6985 8.16573C43.731 7.08584 41.5057 6.51177 39.2615 6.51177C35.28 6.51177 31.538 8.26906 28.993 11.3387C28.7628 11.6132 28.4259 11.774 28.0681 11.774C27.7126 11.774 27.371 11.6179 27.1436 11.3387C24.5928 8.27137 20.8469 6.51177 16.8666 6.51177C14.6259 6.51177 12.3994 7.08352 10.4258 8.16573C6.17327 10.5187 3.53078 14.999 3.53078 19.8503C3.53078 21.2425 3.75285 22.6227 4.19044 23.9586C4.47111 25.2085 5.03091 26.487 5.78811 27.8248H13.8347L16.4101 23.5133C16.6214 23.1578 17.0031 22.9369 17.4195 22.93C17.7915 22.8818 18.2226 23.127 18.45 23.4782L22.664 29.968L27.3591 17.278C27.533 16.8061 27.9825 16.4915 28.4849 16.4915H28.4872C28.9888 16.4915 29.4395 16.8038 29.613 17.2757L33.5451 27.8244H40.506C41.1707 27.8244 41.7077 28.3642 41.7077 29.0265C41.7077 29.6931 41.1703 30.2283 40.506 30.2283H32.7069C32.2046 30.2283 31.7562 29.9183 31.5777 29.4491L28.4918 21.1503L24.0924 33.0554C23.9363 33.4807 23.5488 33.7837 23.0969 33.8304C23.0511 33.8354 23.0079 33.8396 22.9643 33.8396C22.5607 33.8396 22.179 33.633 21.955 33.2902L17.4862 26.4072L15.5504 29.6469C15.3341 30.0085 14.9424 30.2337 14.5198 30.2337H1.20211C0.5386 30.2341 0 29.6943 0 29.0319C0 28.3653 0.5386 27.8302 1.20211 27.8302H3.05309C2.50717 26.7079 2.10119 25.6222 1.8745 24.5963C1.38987 23.1347 1.12693 21.4996 1.12693 19.8526C1.12693 14.127 4.24595 8.84351 9.26492 6.06146C11.5959 4.78223 14.2218 4.10947 16.8662 4.10947C21.1037 4.10947 25.1133 5.79736 28.0654 8.7826C31.0163 5.79736 35.0213 4.10947 39.2588 4.10947C41.9094 4.10947 44.5291 4.78223 46.8605 6.06146C51.8895 8.84004 55 14.127 55 19.8503Z" fill="#FF9900"/>
</svg>
