<svg width="55" height="55" viewBox="0 0 55 55" fill="none" xmlns="http://www.w3.org/2000/svg">
<path d="M48.9844 6.875H44.6875V5.15625C44.6875 4.24457 44.3253 3.37023 43.6807 2.72557C43.036 2.08091 42.1617 1.71875 41.25 1.71875C40.3383 1.71875 39.464 2.08091 38.8193 2.72557C38.1747 3.37023 37.8125 4.24457 37.8125 5.15625V6.875H30.9375V5.15625C30.9375 4.24457 30.5753 3.37023 29.9307 2.72557C29.286 2.08091 28.4117 1.71875 27.5 1.71875C26.5883 1.71875 25.714 2.08091 25.0693 2.72557C24.4247 3.37023 24.0625 4.24457 24.0625 5.15625V6.875H17.1875V5.15625C17.1875 4.24457 16.8253 3.37023 16.1807 2.72557C15.536 2.08091 14.6617 1.71875 13.75 1.71875C12.8383 1.71875 11.964 2.08091 11.3193 2.72557C10.6747 3.37023 10.3125 4.24457 10.3125 5.15625V6.875H6.01562C4.87602 6.875 3.7831 7.32771 2.97728 8.13353C2.17146 8.93935 1.71875 10.0323 1.71875 11.1719V45.5469C1.71875 46.6865 2.17146 47.7794 2.97728 48.5852C3.7831 49.391 4.87602 49.8438 6.01562 49.8438H30.0781C30.306 49.8438 30.5246 49.7532 30.6858 49.592C30.847 49.4309 30.9375 49.2123 30.9375 48.9844C30.9375 48.7565 30.847 48.5379 30.6858 48.3767C30.5246 48.2155 30.306 48.125 30.0781 48.125H6.01562C5.33249 48.123 4.67792 47.8507 4.19487 47.3676C3.71182 46.8846 3.43954 46.23 3.4375 45.5469V18.9062H51.5625V33.5156C51.5625 33.7435 51.653 33.9621 51.8142 34.1233C51.9754 34.2845 52.194 34.375 52.4219 34.375C52.6498 34.375 52.8684 34.2845 53.0295 34.1233C53.1907 33.9621 53.2812 33.7435 53.2812 33.5156V11.1719C53.2812 10.0323 52.8285 8.93935 52.0227 8.13353C51.2169 7.32771 50.124 6.875 48.9844 6.875ZM39.5312 5.15625C39.5312 4.70041 39.7123 4.26324 40.0347 3.94091C40.357 3.61858 40.7942 3.4375 41.25 3.4375C41.7058 3.4375 42.143 3.61858 42.4653 3.94091C42.7877 4.26324 42.9688 4.70041 42.9688 5.15625V10.3125C42.9688 10.7683 42.7877 11.2055 42.4653 11.5278C42.143 11.8502 41.7058 12.0312 41.25 12.0312C40.7942 12.0312 40.357 11.8502 40.0347 11.5278C39.7123 11.2055 39.5312 10.7683 39.5312 10.3125V5.15625ZM25.7812 5.15625C25.7812 4.70041 25.9623 4.26324 26.2847 3.94091C26.607 3.61858 27.0442 3.4375 27.5 3.4375C27.9558 3.4375 28.393 3.61858 28.7153 3.94091C29.0377 4.26324 29.2188 4.70041 29.2188 5.15625V10.3125C29.2188 10.7683 29.0377 11.2055 28.7153 11.5278C28.393 11.8502 27.9558 12.0312 27.5 12.0312C27.0442 12.0312 26.607 11.8502 26.2847 11.5278C25.9623 11.2055 25.7812 10.7683 25.7812 10.3125V5.15625ZM12.0312 5.15625C12.0312 4.70041 12.2123 4.26324 12.5347 3.94091C12.857 3.61858 13.2942 3.4375 13.75 3.4375C14.2058 3.4375 14.643 3.61858 14.9653 3.94091C15.2877 4.26324 15.4688 4.70041 15.4688 5.15625V10.3125C15.4688 10.7683 15.2877 11.2055 14.9653 11.5278C14.643 11.8502 14.2058 12.0312 13.75 12.0312C13.2942 12.0312 12.857 11.8502 12.5347 11.5278C12.2123 11.2055 12.0312 10.7683 12.0312 10.3125V5.15625ZM51.5625 17.1875H3.4375V11.1719C3.43954 10.4887 3.71182 9.83417 4.19487 9.35112C4.67792 8.86807 5.33249 8.59579 6.01562 8.59375H10.3125V10.3125C10.3125 11.2242 10.6747 12.0985 11.3193 12.7432C11.964 13.3878 12.8383 13.75 13.75 13.75C14.6617 13.75 15.536 13.3878 16.1807 12.7432C16.8253 12.0985 17.1875 11.2242 17.1875 10.3125V8.59375H24.0625V10.3125C24.0625 11.2242 24.4247 12.0985 25.0693 12.7432C25.714 13.3878 26.5883 13.75 27.5 13.75C28.4117 13.75 29.286 13.3878 29.9307 12.7432C30.5753 12.0985 30.9375 11.2242 30.9375 10.3125V8.59375H37.8125V10.3125C37.8125 11.2242 38.1747 12.0985 38.8193 12.7432C39.464 13.3878 40.3383 13.75 41.25 13.75C42.1617 13.75 43.036 13.3878 43.6807 12.7432C44.3253 12.0985 44.6875 11.2242 44.6875 10.3125V8.59375H48.9844C49.6675 8.59579 50.3221 8.86807 50.8051 9.35112C51.2882 9.83417 51.5605 10.4887 51.5625 11.1719V17.1875Z" fill="#FF9900"/>
<path d="M25.7812 24.9219C25.7812 24.466 25.6002 24.0289 25.2778 23.7065C24.9555 23.3842 24.5183 23.2031 24.0625 23.2031H20.625C20.1692 23.2031 19.732 23.3842 19.4097 23.7065C19.0873 24.0289 18.9062 24.466 18.9062 24.9219V27.5C18.9062 27.9558 19.0873 28.393 19.4097 28.7153C19.732 29.0377 20.1692 29.2188 20.625 29.2188H24.0625C24.5183 29.2188 24.9555 29.0377 25.2778 28.7153C25.6002 28.393 25.7812 27.9558 25.7812 27.5V24.9219ZM20.625 27.5V24.9219H24.0625V27.5H20.625Z" fill="#FF9900"/>
<path d="M15.4688 24.9219C15.4688 24.466 15.2877 24.0289 14.9653 23.7065C14.643 23.3842 14.2058 23.2031 13.75 23.2031H10.3125C9.85666 23.2031 9.41949 23.3842 9.09716 23.7065C8.77483 24.0289 8.59375 24.466 8.59375 24.9219V27.5C8.59375 27.9558 8.77483 28.393 9.09716 28.7153C9.41949 29.0377 9.85666 29.2188 10.3125 29.2188H13.75C14.2058 29.2188 14.643 29.0377 14.9653 28.7153C15.2877 28.393 15.4688 27.9558 15.4688 27.5V24.9219ZM10.3125 27.5V24.9219H13.75V27.5H10.3125Z" fill="#FF9900"/>
<path d="M44.6875 29.2188C45.1433 29.2188 45.5805 29.0377 45.9028 28.7153C46.2252 28.393 46.4062 27.9558 46.4062 27.5V24.9219C46.4062 24.466 46.2252 24.0289 45.9028 23.7065C45.5805 23.3842 45.1433 23.2031 44.6875 23.2031H41.25C40.7942 23.2031 40.357 23.3842 40.0347 23.7065C39.7123 24.0289 39.5312 24.466 39.5312 24.9219V27.5C39.5312 27.9558 39.7123 28.393 40.0347 28.7153C40.357 29.0377 40.7942 29.2188 41.25 29.2188H44.6875ZM41.25 24.9219H44.6875V27.5H41.25V24.9219Z" fill="#FF9900"/>
<path d="M25.7812 32.6562C25.7812 32.2004 25.6002 31.7632 25.2778 31.4409C24.9555 31.1186 24.5183 30.9375 24.0625 30.9375H20.625C20.1692 30.9375 19.732 31.1186 19.4097 31.4409C19.0873 31.7632 18.9062 32.2004 18.9062 32.6562V35.2344C18.9062 35.6902 19.0873 36.1274 19.4097 36.4497C19.732 36.772 20.1692 36.9531 20.625 36.9531H24.0625C24.5183 36.9531 24.9555 36.772 25.2778 36.4497C25.6002 36.1274 25.7812 35.6902 25.7812 35.2344V32.6562ZM20.625 35.2344V32.6562H24.0625V35.2344H20.625Z" fill="#FF9900"/>
<path d="M15.4688 32.6562C15.4688 32.2004 15.2877 31.7632 14.9653 31.4409C14.643 31.1186 14.2058 30.9375 13.75 30.9375H10.3125C9.85666 30.9375 9.41949 31.1186 9.09716 31.4409C8.77483 31.7632 8.59375 32.2004 8.59375 32.6562V35.2344C8.59375 35.6902 8.77483 36.1274 9.09716 36.4497C9.41949 36.772 9.85666 36.9531 10.3125 36.9531H13.75C14.2058 36.9531 14.643 36.772 14.9653 36.4497C15.2877 36.1274 15.4688 35.6902 15.4688 35.2344V32.6562ZM10.3125 35.2344V32.6562H13.75V35.2344H10.3125Z" fill="#FF9900"/>
<path d="M24.0625 38.6719H20.625C20.1692 38.6719 19.732 38.853 19.4097 39.1753C19.0873 39.4976 18.9062 39.9348 18.9062 40.3906V42.9688C18.9062 43.4246 19.0873 43.8618 19.4097 44.1841C19.732 44.5064 20.1692 44.6875 20.625 44.6875H24.0625C24.5183 44.6875 24.9555 44.5064 25.2778 44.1841C25.6002 43.8618 25.7812 43.4246 25.7812 42.9688V40.3906C25.7812 39.9348 25.6002 39.4976 25.2778 39.1753C24.9555 38.853 24.5183 38.6719 24.0625 38.6719ZM20.625 42.9688V40.3906H24.0625V42.9688H20.625Z" fill="#FF9900"/>
<path d="M30.9375 29.2188H34.375C34.8308 29.2188 35.268 29.0377 35.5903 28.7153C35.9127 28.393 36.0938 27.9558 36.0938 27.5V24.9219C36.0938 24.466 35.9127 24.0289 35.5903 23.7065C35.268 23.3842 34.8308 23.2031 34.375 23.2031H30.9375C30.4817 23.2031 30.0445 23.3842 29.7222 23.7065C29.3998 24.0289 29.2188 24.466 29.2188 24.9219V27.5C29.2188 27.9558 29.3998 28.393 29.7222 28.7153C30.0445 29.0377 30.4817 29.2188 30.9375 29.2188ZM30.9375 24.9219H34.375V27.5H30.9375V24.9219Z" fill="#FF9900"/>
<path d="M29.2188 35.2344C29.2188 35.6902 29.3998 36.1274 29.7222 36.4497C30.0445 36.772 30.4817 36.9531 30.9375 36.9531C31.1654 36.9531 31.384 36.8626 31.5452 36.7014C31.7063 36.5403 31.7969 36.3217 31.7969 36.0938C31.7969 35.8658 31.7063 35.6472 31.5452 35.4861C31.384 35.3249 31.1654 35.2344 30.9375 35.2344V32.6562H34.375C34.6029 32.6562 34.8215 32.5657 34.9827 32.4045C35.1438 32.2434 35.2344 32.0248 35.2344 31.7969C35.2344 31.569 35.1438 31.3504 34.9827 31.1892C34.8215 31.028 34.6029 30.9375 34.375 30.9375H30.9375C30.4817 30.9375 30.0445 31.1186 29.7222 31.4409C29.3998 31.7632 29.2188 32.2004 29.2188 32.6562V35.2344Z" fill="#FF9900"/>
<path d="M13.75 38.6719H10.3125C9.85666 38.6719 9.41949 38.853 9.09716 39.1753C8.77483 39.4976 8.59375 39.9348 8.59375 40.3906V42.9688C8.59375 43.4246 8.77483 43.8618 9.09716 44.1841C9.41949 44.5064 9.85666 44.6875 10.3125 44.6875H13.75C14.2058 44.6875 14.643 44.5064 14.9653 44.1841C15.2877 43.8618 15.4688 43.4246 15.4688 42.9688V40.3906C15.4688 39.9348 15.2877 39.4976 14.9653 39.1753C14.643 38.853 14.2058 38.6719 13.75 38.6719ZM10.3125 42.9688V40.3906H13.75V42.9688H10.3125Z" fill="#FF9900"/>
<path d="M42.1094 30.9375C39.8998 30.9375 37.7398 31.5927 35.9026 32.8203C34.0654 34.0479 32.6335 35.7927 31.7879 37.8341C30.9423 39.8755 30.7211 42.1218 31.1522 44.2889C31.5832 46.456 32.6473 48.4467 34.2097 50.0091C35.7721 51.5715 37.7627 52.6355 39.9298 53.0666C42.097 53.4976 44.3433 53.2764 46.3847 52.4308C48.4261 51.5853 50.1709 50.1533 51.3984 48.3161C52.626 46.4789 53.2812 44.319 53.2812 42.1094C53.2778 39.1475 52.0997 36.3078 50.0053 34.2134C47.9109 32.119 45.0713 30.9409 42.1094 30.9375ZM42.1094 51.5625C40.2397 51.5625 38.4121 51.0081 36.8575 49.9693C35.3029 48.9306 34.0913 47.4543 33.3758 45.7269C32.6603 43.9996 32.4731 42.0989 32.8379 40.2652C33.2026 38.4314 34.103 36.747 35.425 35.425C36.7471 34.103 38.4314 33.2026 40.2652 32.8379C42.0989 32.4731 43.9996 32.6603 45.7269 33.3758C47.4543 34.0913 48.9306 35.3029 49.9694 36.8575C51.0081 38.4121 51.5625 40.2397 51.5625 42.1094C51.5595 44.6156 50.5626 47.0183 48.7905 48.7905C47.0183 50.5626 44.6156 51.5595 42.1094 51.5625Z" fill="#FF9900"/>
<path d="M47.0748 38.5069L40.3906 45.1911L37.3527 42.1524C37.1906 41.9958 36.9736 41.9092 36.7482 41.9112C36.5229 41.9131 36.3074 42.0035 36.148 42.1628C35.9887 42.3222 35.8983 42.5377 35.8964 42.763C35.8944 42.9884 35.981 43.2054 36.1376 43.3675L39.783 47.0138C39.9442 47.175 40.1627 47.2655 40.3906 47.2655C40.6185 47.2655 40.837 47.175 40.9982 47.0138L48.29 39.722C48.4465 39.56 48.5331 39.3429 48.5312 39.1176C48.5292 38.8922 48.4389 38.6767 48.2795 38.5174C48.1202 38.358 47.9046 38.2676 47.6793 38.2657C47.454 38.2637 47.2369 38.3504 47.0748 38.5069Z" fill="#FF9900"/>
</svg>
