<svg width="55" height="55" viewBox="0 0 55 55" fill="none" xmlns="http://www.w3.org/2000/svg">
<path d="M49.983 22.7764C50.6164 17.8994 48.0401 13.1321 43.5389 11.0061C41.01 9.81155 38.2231 9.61626 35.6696 10.3104C34.3051 9.09215 32.6282 8.25126 30.8417 7.89129C29.3316 3.21104 24.9659 0 19.9878 0C15.0098 0 10.6441 3.21029 9.13419 7.89064C4.37757 8.84175 0.873592 13.0584 0.873592 17.979C0.873592 20.9333 2.11388 23.6914 4.29873 25.6442C4.22106 26.1564 4.18196 26.675 4.18196 27.1932C4.18196 31.4693 6.8039 35.2645 10.7577 36.7908C11.5006 38.4771 12.6853 39.9206 14.2072 40.9869C15.6121 41.9714 17.2217 42.5709 18.9136 42.7497V49.9329C18.9136 50.5261 19.3947 51.0071 19.9878 51.0071C20.581 51.0071 21.0621 50.5261 21.0621 49.9329V46.0183C21.8902 47.3201 22.9958 48.4027 24.3101 49.2022L22.2958 53.4669C22.0425 54.0032 22.2718 54.6436 22.8083 54.8969C22.9565 54.9669 23.1126 55 23.2663 55C23.669 55 24.055 54.7726 24.2384 54.3844L26.2523 50.1205C27.3183 50.4928 28.4306 50.682 29.5528 50.682C30.1214 50.682 30.6926 50.6335 31.2613 50.5359C33.0928 50.2216 34.7806 49.4225 36.1725 48.215C36.4243 48.2334 36.6752 48.2424 36.9249 48.2424C40.8668 48.2422 44.5 45.981 46.2174 42.3451C46.4387 41.8766 46.6247 41.3908 46.7734 40.8947C49.5828 40.0621 51.8823 38.0979 53.144 35.4265C55.2454 30.9771 53.8778 25.6678 49.983 22.7764ZM12.5724 35.5571C12.4573 35.256 12.213 35.0227 11.9072 34.9213C8.57141 33.8156 6.33028 30.71 6.33028 27.1933C6.33028 26.6083 6.39323 26.0226 6.51741 25.4524C6.60496 25.0506 6.45543 24.634 6.13219 24.3796C4.15564 22.8239 3.02191 20.491 3.02191 17.9791C3.02191 13.8955 6.07096 10.4248 10.1141 9.90598C10.5509 9.8499 10.9091 9.53301 11.0182 9.10644C12.0651 5.0096 15.7535 2.14843 19.9878 2.14843C24.2222 2.14843 27.9106 5.0096 28.9574 9.10622C29.0665 9.5329 29.4247 9.84969 29.8614 9.90576C31.1098 10.066 32.3087 10.5239 33.3521 11.2243C32.2525 11.803 31.2363 12.5659 30.355 13.5056C27.0165 12.6747 23.5476 13.5996 21.0621 15.7941V11.7151C21.0621 11.1219 20.581 10.6408 19.9878 10.6408C19.3947 10.6408 18.9136 11.1219 18.9136 11.7151V17.8206C17.4258 16.2206 15.3299 15.2842 13.0662 15.2842C12.4731 15.2842 11.992 15.7653 11.992 16.3585C11.992 16.9516 12.4731 17.4327 13.0662 17.4327C15.1539 17.4327 17.0473 18.5216 18.0988 20.3002C17.4315 22.3312 17.416 24.4988 18.0495 26.5335C16.6504 25.4187 14.8994 24.7896 13.0662 24.7896C12.4731 24.7896 11.992 25.2707 11.992 25.8639C11.992 26.457 12.4731 26.9381 13.0662 26.9381C14.8051 26.9381 16.4416 27.7137 17.5482 29.0338C15.9528 32.5935 16.5103 36.6972 18.9136 39.6827V40.5835C16.0817 40.1906 13.6106 38.2703 12.5724 35.5571ZM51.2012 34.5088C50.1285 36.7801 48.107 38.4053 45.6553 38.9679C45.2546 39.0598 44.9414 39.3726 44.8488 39.7732C44.7175 40.3417 44.5243 40.8984 44.2744 41.4275C42.7726 44.6072 39.4203 46.4586 35.9312 46.0334C35.6112 45.9951 35.2908 46.1011 35.0581 46.3242C32.9607 48.3342 29.9063 49.0151 27.1777 48.1609L30.5082 41.1095C31.1753 39.6975 32.3523 38.6295 33.8225 38.1026C35.2928 37.5756 36.8803 37.6527 38.2926 38.3198C38.829 38.573 39.4693 38.3438 39.7226 37.8073C39.9759 37.2709 39.7465 36.6306 39.2101 36.3773C37.1246 35.3923 34.8238 35.3926 32.8336 36.186L34.5673 32.5154L34.5675 32.5151C35.2346 31.1029 36.4117 30.0348 37.8819 29.5079C39.3523 28.9811 40.9396 29.058 42.352 29.7251C42.8887 29.9783 43.5287 29.7491 43.782 29.2126C44.0353 28.6763 43.806 28.0359 43.2695 27.7826C41.3383 26.8705 39.1675 26.7651 37.1571 27.4854C37.0687 27.5171 36.9821 27.552 36.8953 27.5865L39.5066 22.0579C39.7599 21.5216 39.5306 20.8812 38.9941 20.6279C38.4575 20.3744 37.8175 20.604 37.5641 21.1404L34.9506 26.6738C34.2992 24.6327 32.838 22.8556 30.7524 21.8705C30.2158 21.6172 29.5759 21.8465 29.3224 22.383C29.0691 22.9193 29.2985 23.5597 29.835 23.813C32.7499 25.1899 34.0015 28.6813 32.6253 31.5965L30.8933 35.2636C30.8648 35.1746 30.8368 35.0857 30.8051 34.9973C30.0845 32.9867 28.6241 31.3772 26.6929 30.465C26.1563 30.2114 25.5162 30.4411 25.2629 30.9776C25.0096 31.5139 25.2389 32.1542 25.7754 32.4075C27.1875 33.0746 28.2556 34.2518 28.7825 35.7219C29.3094 37.1923 29.2324 38.7798 28.5653 40.1921V40.1922L25.2351 47.2431C22.8422 45.6784 21.4278 42.8866 21.6479 39.9901C21.6723 39.6688 21.5513 39.3534 21.3179 39.1311C18.7739 36.7067 18.0738 32.9412 19.5757 29.7615C19.8256 29.2323 20.1328 28.7295 20.4884 28.2672C20.7393 27.9413 20.7818 27.5006 20.5982 27.1326C19.4753 24.8817 19.4465 22.288 20.5194 20.0168C21.8933 17.1079 24.815 15.3514 27.8893 15.3514C28.7174 15.3514 29.5573 15.479 30.3802 15.7459C30.7983 15.8817 31.2583 15.7483 31.5391 15.4091C34.2354 12.1519 38.7923 11.1402 42.6211 12.9484C46.4499 14.7568 48.5629 18.9192 47.7598 23.0706C47.6763 23.5028 47.8649 23.9424 48.2359 24.1796C51.6705 26.3759 52.9452 30.8164 51.2012 34.5088Z" fill="#FF9900"/>
<path d="M10.7317 12.8317C10.7059 12.8314 10.7576 12.8312 10.7317 12.8312C7.95131 12.8303 5.66956 15.0063 5.5906 17.7855C5.55827 18.9244 5.89933 19.9818 6.50025 20.8448C6.88676 21.3998 7.75924 21.0415 7.65643 20.3729C7.61067 20.0755 7.58693 19.7711 7.58693 19.461C7.58693 17.0717 8.99265 15.0108 11.0223 14.0601C11.6434 13.7692 11.4175 12.8422 10.7317 12.8317Z" fill="#FF9900"/>
<path d="M27.5497 18.0954C27.524 18.0951 27.5756 18.0949 27.5497 18.0949C24.7693 18.094 22.4876 20.27 22.4086 23.0492C22.3763 24.1881 22.7174 25.2454 23.3183 26.1084C23.7048 26.6635 24.5774 26.3051 24.4745 25.6365C24.4287 25.3392 24.405 25.0348 24.405 24.7246C24.405 22.3354 25.8107 20.2745 27.8403 19.3238C28.4613 19.0329 28.2355 18.1058 27.5497 18.0954Z" fill="#FF9900"/>
</svg>
