<svg width="43" height="43" viewBox="0 0 43 43" fill="none" xmlns="http://www.w3.org/2000/svg">
<path fill-rule="evenodd" clip-rule="evenodd" d="M30.6543 8.98764C34.3824 9.85275 35.8085 12.0327 37.5965 15.0332H30.6543V8.98764ZM8.86691 15.2852C9.59686 15.2852 10.1267 15.6375 10.1267 16.4609C10.1267 17.1554 9.5647 17.7187 8.87052 17.7207H1.25977C0.563942 17.7207 0 18.285 0 18.9805C0 19.6763 0.563942 20.2402 1.25977 20.2402H12.5977C13.3 20.2402 13.8623 20.8038 13.8623 21.5C13.8623 22.1958 13.2984 22.7598 12.6026 22.7598H1.25977C0.563942 22.7598 0 23.3237 0 24.0195C0 24.7154 0.563942 25.2793 1.25977 25.2793H4.03125V29.0586C4.03125 29.7544 4.59519 30.3184 5.29102 30.3184H7.82334C8.27476 32.542 10.2395 34.1816 12.5557 34.1816C14.8718 34.1816 16.8366 32.542 17.288 30.3184H30.0792C30.5306 32.542 32.4954 34.1816 34.8115 34.1816C37.1277 34.1816 39.0924 32.542 39.5438 30.3184H41.7402C42.4361 30.3184 43 29.7544 43 29.0586V21.5C43 17.8037 39.1013 17.5583 39.0977 17.5527H29.3945C28.6987 17.5527 28.1348 16.9888 28.1348 16.293V8.73438H5.29102C4.59519 8.73438 4.03125 9.29832 4.03125 9.99414V12.7656H2.51953C1.82371 12.7656 1.25977 13.3296 1.25977 14.0254C1.25977 14.7212 1.82371 15.2852 2.51953 15.2852H8.86691ZM36.4446 27.7194C37.3465 28.6213 37.3465 30.0841 36.4446 30.986C34.9939 32.4367 32.502 31.4046 32.502 29.3525C32.502 27.3008 34.9939 26.2687 36.4446 27.7194ZM14.1888 27.7194C15.0906 28.6213 15.0906 30.0841 14.1888 30.986C12.7381 32.4367 10.2461 31.4046 10.2461 29.3525C10.2461 27.3008 12.7381 26.2687 14.1888 27.7194Z" fill="#FF9900"/>
</svg>
