<svg width="43" height="43" viewBox="0 0 43 43" fill="none" xmlns="http://www.w3.org/2000/svg">
<g clip-path="url(#clip0_406:25)">
<path d="M36.7029 6.29718C32.642 2.23637 27.2429 3.05176e-05 21.5 3.05176e-05C15.7571 3.05176e-05 10.358 2.23637 6.29715 6.29718C2.23634 10.358 0 15.7572 0 21.5C0 27.2429 2.23642 32.642 6.29715 36.7029C10.3579 40.7638 15.7571 43 21.5 43C27.2429 43 32.642 40.7637 36.7029 36.7029C40.7637 32.6421 43 27.2429 43 21.5C43 15.7572 40.7636 10.3581 36.7029 6.29718ZM21.5 20.1563C24.8343 20.1563 27.5469 22.8689 27.5469 26.2032C27.5469 28.9643 25.686 31.2976 23.153 32.0185C22.971 32.0703 22.8438 32.234 22.8438 32.4232V33.5558C22.8438 34.2794 22.2877 34.902 21.5649 34.936C20.7932 34.9723 20.1562 34.3574 20.1562 33.5938V32.423C20.1562 32.2342 20.0298 32.0705 19.8483 32.0188C17.3261 31.3016 15.47 28.9859 15.4532 26.2407C15.4488 25.5079 16.0249 24.881 16.7574 24.86C17.5175 24.8382 18.1406 25.4479 18.1406 26.2032C18.1406 28.135 19.7797 29.6912 21.7401 29.5541C23.3949 29.4385 24.7354 28.0979 24.851 26.4431C24.9879 24.4827 23.4317 22.8438 21.5 22.8438C18.1657 22.8438 15.4531 20.1312 15.4531 16.7969C15.4531 14.0358 17.314 11.7025 19.847 10.9816C20.029 10.9298 20.1562 10.7661 20.1562 10.5769V9.44424C20.1562 8.72063 20.7123 8.09806 21.4351 8.06404C22.2068 8.02776 22.8438 8.64261 22.8438 9.40628V10.5771C22.8438 10.7658 22.9702 10.9296 23.1517 10.9812C25.6739 11.6985 27.53 14.0142 27.5468 16.7594C27.5512 17.4921 26.9751 18.1191 26.2426 18.1401C25.4825 18.1619 24.8594 17.5522 24.8594 16.7969C24.8594 14.8651 23.2203 13.3089 21.2599 13.4459C19.6051 13.5616 18.2646 14.9021 18.149 16.557C18.0121 18.5174 19.5683 20.1563 21.5 20.1563Z" fill="#FF9900"/>
</g>
<defs>
<clipPath id="clip0_406:25">
<rect width="43" height="43" fill="white"/>
</clipPath>
</defs>
</svg>
