<svg width="33" height="33" viewBox="0 0 33 33" fill="none" xmlns="http://www.w3.org/2000/svg">
<path d="M28.875 26.2625H4.125V6.875H28.875V26.2625ZM28.875 4.125H4.125C2.6125 4.125 1.375 5.3625 1.375 6.875V26.125C1.375 27.6375 2.6125 28.875 4.125 28.875H28.875C30.3875 28.875 31.625 27.6375 31.625 26.125V6.875C31.625 5.3625 30.3875 4.125 28.875 4.125Z" fill="#C4C4C4"/>
<path d="M20.0613 11L16.5 14.5613L12.9387 11L11 12.9387L14.5613 16.5L11 20.0613L12.9387 22L16.5 18.4387L20.0613 22L22 20.0613L18.4387 16.5L22 12.9387L20.0613 11Z" fill="#C4C4C4"/>
</svg>
