<svg width="25" height="25" viewBox="0 0 25 25" fill="none" xmlns="http://www.w3.org/2000/svg">
<path d="M23.0713 10.0586H16.8213C16.7139 10.0586 16.626 10.1465 16.626 10.2539V11.4258C16.626 11.5332 16.7139 11.6211 16.8213 11.6211H23.0713C23.1787 11.6211 23.2666 11.5332 23.2666 11.4258V10.2539C23.2666 10.1465 23.1787 10.0586 23.0713 10.0586ZM19.7998 13.3789H16.8213C16.7139 13.3789 16.626 13.4668 16.626 13.5742V14.7461C16.626 14.8535 16.7139 14.9414 16.8213 14.9414H19.7998C19.9072 14.9414 19.9951 14.8535 19.9951 14.7461V13.5742C19.9951 13.4668 19.9072 13.3789 19.7998 13.3789ZM11.6528 7.87354H10.5957C10.4443 7.87354 10.3223 7.99561 10.3223 8.14697V14.2017C10.3223 14.2896 10.3638 14.3701 10.4346 14.4214L14.0698 17.0728C14.1919 17.1606 14.3628 17.1362 14.4507 17.0142L15.0781 16.1572V16.1548C15.166 16.0327 15.1392 15.8618 15.0171 15.7739L11.9238 13.5376V8.14697C11.9263 7.99561 11.8018 7.87354 11.6528 7.87354Z" fill="#FF9900"/>
<path d="M19.6484 16.4526H18.2373C18.1005 16.4526 17.9711 16.5234 17.8979 16.6406C17.5878 17.1314 17.2265 17.5855 16.8115 18.0005C16.0961 18.7158 15.2636 19.2774 14.3383 19.668C13.3789 20.0733 12.3608 20.2783 11.311 20.2783C10.2587 20.2783 9.24068 20.0733 8.28365 19.668C7.35835 19.2774 6.52583 18.7158 5.8105 18.0005C5.09517 17.2852 4.53365 16.4526 4.14302 15.5274C3.73775 14.5703 3.53267 13.5523 3.53267 12.5C3.53267 11.4478 3.73775 10.4321 4.14302 9.47267C4.53365 8.54738 5.09517 7.71486 5.8105 6.99952C6.52583 6.28419 7.35835 5.72267 8.28365 5.33204C9.24068 4.92677 10.2612 4.72169 11.311 4.72169C12.3632 4.72169 13.3813 4.92677 14.3383 5.33204C15.2636 5.72267 16.0961 6.28419 16.8115 6.99952C17.2265 7.41456 17.5878 7.86866 17.8979 8.35939C17.9711 8.47657 18.1005 8.54738 18.2373 8.54738H19.6484C19.8168 8.54738 19.9243 8.37159 19.8486 8.22267C18.2568 5.05616 15.0293 2.99806 11.4257 2.95656C6.14986 2.89064 1.76753 7.20949 1.75777 12.4805C1.748 17.7612 6.02779 22.0459 11.3085 22.0459C14.9584 22.0459 18.2397 19.9805 19.8486 16.7774C19.9243 16.6284 19.8144 16.4526 19.6484 16.4526Z" fill="#FF9900"/>
</svg>
